<svg width="40" height="40" viewBox="0 0 40 40" fill="none" xmlns="http://www.w3.org/2000/svg">
<rect width="40" height="40" rx="20" fill="url(#paint0_linear_8124_129616)"/>
<rect width="40" height="40" rx="20" fill="white" fill-opacity="0.8"/>
<path d="M25.6283 11.7041C25.5289 11.432 25.1491 11.432 25.0497 11.7041L25.0264 11.7678C24.6165 12.89 24.4117 13.4511 24.0076 13.8603C23.6037 14.2696 23.0499 14.4773 21.9423 14.8925L21.8794 14.9161C21.6108 15.0167 21.6108 15.4016 21.8794 15.5023L21.9423 15.5258C23.0499 15.941 23.6037 16.1487 24.0076 16.558C24.4117 16.9672 24.6165 17.5283 25.0264 18.6505L25.0497 18.7143C25.1491 18.9863 25.5289 18.9863 25.6283 18.7143L25.6516 18.6505C26.0614 17.5283 26.2663 16.9672 26.6704 16.558C27.0743 16.1487 27.6281 15.941 28.7357 15.5258L28.7986 15.5023C29.0671 15.4016 29.0671 15.0167 28.7986 14.9161L28.7357 14.8925C27.6281 14.4773 27.0743 14.2696 26.6704 13.8603C26.2663 13.4511 26.0614 12.89 25.6516 11.7678L25.6283 11.7041Z" fill="url(#paint1_linear_8124_129616)"/>
<path d="M11 19.8335C11 15.3639 14.7271 11.8091 19.2373 11.8091C19.5133 11.8091 19.7865 11.8218 20.056 11.8477C20.5592 11.8962 20.9285 12.3497 20.8807 12.8595C20.8327 13.3691 20.3862 13.7433 19.8832 13.6951C19.6711 13.6747 19.4555 13.6637 19.2373 13.6637C15.6607 13.6637 12.8305 16.4648 12.8305 19.8335C12.8306 21.4577 13.4821 22.9388 14.5585 24.0462C14.956 24.4552 15.3334 25.1291 15.1854 25.9237C15.1433 26.1477 15.0832 26.3684 15.0114 26.5829C15.408 26.5118 15.7947 26.3811 16.1531 26.1881C16.3114 26.1028 16.4587 26.023 16.5797 25.9647C16.6904 25.9115 16.8628 25.8337 17.0612 25.8029L17.2018 25.7885C17.3385 25.782 17.4611 25.7963 17.5522 25.809C17.6785 25.8266 17.8309 25.856 17.9895 25.8863C18.4007 25.9644 18.818 26.004 19.2361 26.0034L19.5305 25.9961C22.5496 25.8667 25.0971 23.7509 25.6643 21.0723C25.7706 20.5719 26.2571 20.2538 26.7512 20.3612C27.2454 20.4686 27.5604 20.9616 27.4543 21.4623C26.6709 25.1608 23.1641 27.8567 19.2373 27.8567C18.705 27.8574 18.1746 27.8075 17.6523 27.7082C17.5038 27.68 17.4083 27.6635 17.34 27.6527C17.2675 27.6887 17.1681 27.7414 17.0123 27.8254C15.8924 28.4286 14.5853 28.6428 13.3227 28.4049C13.0053 28.345 12.7428 28.1203 12.6315 27.8133C12.5201 27.5062 12.5768 27.1628 12.7805 26.9089C13.0842 26.5304 13.2941 26.0726 13.387 25.5784C13.387 25.5784 13.3877 25.5731 13.387 25.5675C13.3861 25.5596 13.3824 25.5445 13.3739 25.5228C13.3559 25.4767 13.3176 25.4137 13.2536 25.3478C11.8618 23.9159 11.0001 21.9752 11 19.8335Z" fill="#141B34"/>
<path d="M11 19.8335C11 15.3639 14.7271 11.8091 19.2373 11.8091C19.5133 11.8091 19.7865 11.8218 20.056 11.8477C20.5592 11.8962 20.9285 12.3497 20.8807 12.8595C20.8327 13.3691 20.3862 13.7433 19.8832 13.6951C19.6711 13.6747 19.4555 13.6637 19.2373 13.6637C15.6607 13.6637 12.8305 16.4648 12.8305 19.8335C12.8306 21.4577 13.4821 22.9388 14.5585 24.0462C14.956 24.4552 15.3334 25.1291 15.1854 25.9237C15.1433 26.1477 15.0832 26.3684 15.0114 26.5829C15.408 26.5118 15.7947 26.3811 16.1531 26.1881C16.3114 26.1028 16.4587 26.023 16.5797 25.9647C16.6904 25.9115 16.8628 25.8337 17.0612 25.8029L17.2018 25.7885C17.3385 25.782 17.4611 25.7963 17.5522 25.809C17.6785 25.8266 17.8309 25.856 17.9895 25.8863C18.4007 25.9644 18.818 26.004 19.2361 26.0034L19.5305 25.9961C22.5496 25.8667 25.0971 23.7509 25.6643 21.0723C25.7706 20.5719 26.2571 20.2538 26.7512 20.3612C27.2454 20.4686 27.5604 20.9616 27.4543 21.4623C26.6709 25.1608 23.1641 27.8567 19.2373 27.8567C18.705 27.8574 18.1746 27.8075 17.6523 27.7082C17.5038 27.68 17.4083 27.6635 17.34 27.6527C17.2675 27.6887 17.1681 27.7414 17.0123 27.8254C15.8924 28.4286 14.5853 28.6428 13.3227 28.4049C13.0053 28.345 12.7428 28.1203 12.6315 27.8133C12.5201 27.5062 12.5768 27.1628 12.7805 26.9089C13.0842 26.5304 13.2941 26.0726 13.387 25.5784C13.387 25.5784 13.3877 25.5731 13.387 25.5675C13.3861 25.5596 13.3824 25.5445 13.3739 25.5228C13.3559 25.4767 13.3176 25.4137 13.2536 25.3478C11.8618 23.9159 11.0001 21.9752 11 19.8335Z" fill="url(#paint2_linear_8124_129616)"/>
<defs>
<linearGradient id="paint0_linear_8124_129616" x1="39.4264" y1="40" x2="-2.21549" y2="37.4259" gradientUnits="userSpaceOnUse">
<stop stop-color="#7348B7"/>
<stop offset="1" stop-color="#5B7CBF"/>
</linearGradient>
<linearGradient id="paint1_linear_8124_129616" x1="30.1279" y1="29.8473" x2="8.42802" y2="28.427" gradientUnits="userSpaceOnUse">
<stop stop-color="#7348B7"/>
<stop offset="1" stop-color="#5B7CBF"/>
</linearGradient>
<linearGradient id="paint2_linear_8124_129616" x1="5.16912" y1="-2.88151" x2="26.104" y2="33.0535" gradientUnits="userSpaceOnUse">
<stop stop-color="#7348B7"/>
<stop offset="1" stop-color="#5B7CBF"/>
</linearGradient>
</defs>
</svg>
