<svg width="33" height="32" viewBox="0 0 33 32" fill="none" xmlns="http://www.w3.org/2000/svg">
  <rect x="0.839844" width="32" height="32" rx="4" fill="#F2F2F2" />
  <path
    d="M9.83984 25C9.28984 25 8.81884 24.8043 8.42684 24.413C8.03551 24.021 7.83984 23.55 7.83984 23V9C7.83984 8.45 8.03551 7.979 8.42684 7.587C8.81884 7.19567 9.28984 7 9.83984 7H23.8398C24.3898 7 24.8608 7.19567 25.2528 7.587C25.6442 7.979 25.8398 8.45 25.8398 9V23C25.8398 23.55 25.6442 24.021 25.2528 24.413C24.8608 24.8043 24.3898 25 23.8398 25H9.83984ZM9.83984 23H23.8398V9H9.83984V23ZM12.8398 21C13.1232 21 13.3608 20.904 13.5528 20.712C13.7442 20.5207 13.8398 20.2833 13.8398 20V17C13.8398 16.7167 13.7442 16.479 13.5528 16.287C13.3608 16.0957 13.1232 16 12.8398 16C12.5565 16 12.3188 16.0957 12.1268 16.287C11.9355 16.479 11.8398 16.7167 11.8398 17V20C11.8398 20.2833 11.9355 20.5207 12.1268 20.712C12.3188 20.904 12.5565 21 12.8398 21ZM20.8398 21C21.1232 21 21.3605 20.904 21.5518 20.712C21.7438 20.5207 21.8398 20.2833 21.8398 20V12C21.8398 11.7167 21.7438 11.479 21.5518 11.287C21.3605 11.0957 21.1232 11 20.8398 11C20.5565 11 20.3192 11.0957 20.1278 11.287C19.9358 11.479 19.8398 11.7167 19.8398 12V20C19.8398 20.2833 19.9358 20.5207 20.1278 20.712C20.3192 20.904 20.5565 21 20.8398 21ZM16.8398 21C17.1232 21 17.3608 20.904 17.5528 20.712C17.7442 20.5207 17.8398 20.2833 17.8398 20V19C17.8398 18.7167 17.7442 18.479 17.5528 18.287C17.3608 18.0957 17.1232 18 16.8398 18C16.5565 18 16.3192 18.0957 16.1278 18.287C15.9358 18.479 15.8398 18.7167 15.8398 19V20C15.8398 20.2833 15.9358 20.5207 16.1278 20.712C16.3192 20.904 16.5565 21 16.8398 21ZM16.8398 16C17.1232 16 17.3608 15.904 17.5528 15.712C17.7442 15.5207 17.8398 15.2833 17.8398 15C17.8398 14.7167 17.7442 14.479 17.5528 14.287C17.3608 14.0957 17.1232 14 16.8398 14C16.5565 14 16.3192 14.0957 16.1278 14.287C15.9358 14.479 15.8398 14.7167 15.8398 15C15.8398 15.2833 15.9358 15.5207 16.1278 15.712C16.3192 15.904 16.5565 16 16.8398 16Z"
    fill="#FFD869" />
  <path
    d="M9.83984 25C9.28984 25 8.81884 24.8043 8.42684 24.413C8.03551 24.021 7.83984 23.55 7.83984 23V9C7.83984 8.45 8.03551 7.979 8.42684 7.587C8.81884 7.19567 9.28984 7 9.83984 7H23.8398C24.3898 7 24.8608 7.19567 25.2528 7.587C25.6442 7.979 25.8398 8.45 25.8398 9V23C25.8398 23.55 25.6442 24.021 25.2528 24.413C24.8608 24.8043 24.3898 25 23.8398 25H9.83984ZM9.83984 23H23.8398V9H9.83984V23ZM12.8398 21C13.1232 21 13.3608 20.904 13.5528 20.712C13.7442 20.5207 13.8398 20.2833 13.8398 20V17C13.8398 16.7167 13.7442 16.479 13.5528 16.287C13.3608 16.0957 13.1232 16 12.8398 16C12.5565 16 12.3188 16.0957 12.1268 16.287C11.9355 16.479 11.8398 16.7167 11.8398 17V20C11.8398 20.2833 11.9355 20.5207 12.1268 20.712C12.3188 20.904 12.5565 21 12.8398 21ZM20.8398 21C21.1232 21 21.3605 20.904 21.5518 20.712C21.7438 20.5207 21.8398 20.2833 21.8398 20V12C21.8398 11.7167 21.7438 11.479 21.5518 11.287C21.3605 11.0957 21.1232 11 20.8398 11C20.5565 11 20.3192 11.0957 20.1278 11.287C19.9358 11.479 19.8398 11.7167 19.8398 12V20C19.8398 20.2833 19.9358 20.5207 20.1278 20.712C20.3192 20.904 20.5565 21 20.8398 21ZM16.8398 21C17.1232 21 17.3608 20.904 17.5528 20.712C17.7442 20.5207 17.8398 20.2833 17.8398 20V19C17.8398 18.7167 17.7442 18.479 17.5528 18.287C17.3608 18.0957 17.1232 18 16.8398 18C16.5565 18 16.3192 18.0957 16.1278 18.287C15.9358 18.479 15.8398 18.7167 15.8398 19V20C15.8398 20.2833 15.9358 20.5207 16.1278 20.712C16.3192 20.904 16.5565 21 16.8398 21ZM16.8398 16C17.1232 16 17.3608 15.904 17.5528 15.712C17.7442 15.5207 17.8398 15.2833 17.8398 15C17.8398 14.7167 17.7442 14.479 17.5528 14.287C17.3608 14.0957 17.1232 14 16.8398 14C16.5565 14 16.3192 14.0957 16.1278 14.287C15.9358 14.479 15.8398 14.7167 15.8398 15C15.8398 15.2833 15.9358 15.5207 16.1278 15.712C16.3192 15.904 16.5565 16 16.8398 16Z"
    fill="#323130" />
</svg>
