<svg width="32" height="32" viewBox="0 0 32 32" fill="none" xmlns="http://www.w3.org/2000/svg">
<path d="M14.3211 5.70689C15.0937 4.46115 16.9063 4.46115 17.6789 5.70689V5.70689C18.1869 6.5259 19.2117 6.85887 20.1041 6.49487V6.49487C21.4614 5.9412 22.9278 7.00658 22.8206 8.46857V8.46857C22.7502 9.42974 23.3836 10.3015 24.3194 10.5315V10.5315C25.743 10.8814 26.3031 12.6052 25.3571 13.725V13.725C24.7351 14.4612 24.7351 15.5388 25.3571 16.275V16.275C26.3031 17.3948 25.743 19.1186 24.3194 19.4685V19.4685C23.3836 19.6985 22.7502 20.5703 22.8206 21.5314V21.5314C22.9278 22.9934 21.4614 24.0588 20.1041 23.5051V23.5051C19.2117 23.1411 18.1869 23.4741 17.6789 24.2931V24.2931C16.9063 25.5389 15.0937 25.5389 14.3211 24.2931V24.2931C13.8131 23.4741 12.7883 23.1411 11.8959 23.5051V23.5051C10.5386 24.0588 9.07223 22.9934 9.17936 21.5314V21.5314C9.2498 20.5703 8.61644 19.6985 7.68055 19.4685V19.4685C6.25701 19.1186 5.6969 17.3948 6.64291 16.275V16.275C7.26486 15.5388 7.26486 14.4612 6.64291 13.725V13.725C5.6969 12.6052 6.25701 10.8814 7.68055 10.5315V10.5315C8.61644 10.3015 9.2498 9.42974 9.17936 8.46857V8.46857C9.07223 7.00658 10.5386 5.9412 11.8959 6.49487V6.49487C12.7883 6.85887 13.8131 6.5259 14.3211 5.70689V5.70689Z" stroke="#333333" stroke-width="2" stroke-linecap="round" stroke-linejoin="round"/>
<rect x="10" y="9" width="12" height="12" rx="6" stroke="#333333" stroke-width="2" stroke-linecap="round" stroke-linejoin="round"/>
<path d="M24.5395 20L28 25.9072L24.5395 25.7718L22.8235 29L20 24.5556" stroke="#333333" stroke-width="2" stroke-linecap="round" stroke-linejoin="round"/>
<path d="M7.46047 20L4 25.9072L7.46047 25.7718L9.17647 29L12 24.5556" stroke="#333333" stroke-width="2" stroke-linecap="round" stroke-linejoin="round"/>
</svg>
