<svg width="20" height="21" viewBox="0 0 20 21" fill="none" xmlns="http://www.w3.org/2000/svg">
<rect y="0.5" width="20" height="20" rx="4" fill="#CBA543"/>
<path fill-rule="evenodd" clip-rule="evenodd" d="M10 5.5127C10.254 5.5127 10.4907 5.64125 10.6291 5.85428L12.5291 8.78071L14.5803 6.82523C14.7817 6.63321 15.0729 6.5685 15.3367 6.65715C15.6005 6.7458 15.7935 6.97322 15.8381 7.24792L17.0343 14.6171C17.0695 14.8342 17.0077 15.0558 16.8652 15.2233C16.7227 15.3908 16.5139 15.4873 16.294 15.4873H3.70606C3.48615 15.4873 3.27732 15.3908 3.13482 15.2233C2.99232 15.0558 2.93052 14.8342 2.96575 14.6171L4.16188 7.24792C4.20647 6.97322 4.39949 6.7458 4.66329 6.65715C4.92708 6.5685 5.21827 6.63321 5.4197 6.82523L7.47095 8.78071L9.37096 5.85428C9.50927 5.64125 9.74601 5.5127 10 5.5127ZM10 7.63998L8.23678 10.3557C8.11526 10.5429 7.91671 10.6662 7.69508 10.6922C7.47344 10.7182 7.25175 10.6441 7.09023 10.4902L5.41454 8.8927L4.58761 13.9873H15.4124L14.5855 8.8927L12.9098 10.4902C12.7483 10.6441 12.5266 10.7182 12.3049 10.6922C12.0833 10.6662 11.8847 10.5429 11.7632 10.3557L10 7.63998Z" fill="#FFF4D7"/>
</svg>
