<svg width="90" height="25" viewBox="0 0 90 25" fill="none" xmlns="http://www.w3.org/2000/svg">
<path fill-rule="evenodd" clip-rule="evenodd" d="M11.9763 11.3657L9.05099 8.43444L11.9763 5.50347L14.9017 8.43444L11.9763 11.3657ZM20.7512 8.43444L23.346 5.83475C24.1538 5.02447 24.1538 3.71268 23.346 2.90351C22.5384 2.09405 21.2293 2.09405 20.4209 2.90351L17.8262 5.50347L13.4384 1.10688C12.6309 0.297706 11.3218 0.297706 10.5139 1.10688L4.66354 6.96938C3.85572 7.77855 3.85572 9.09034 4.66354 9.89979L11.9763 17.2274L17.8262 11.3657L18.9585 12.5003L11.9763 19.4966L3.5312 11.0344C2.72338 10.2252 1.41424 10.2252 0.605866 11.0344C-0.201955 11.8439 -0.201955 13.1562 0.605866 13.9657L10.5139 23.8929C11.3218 24.7024 12.6309 24.7024 13.4384 23.8929L23.346 13.9657C24.1538 13.1562 24.1538 11.8439 23.346 11.0344L20.7512 8.43444Z" fill="#000000"/>
<path fill-rule="evenodd" clip-rule="evenodd" d="M45.8706 11.9402V19.4969H44.0551V17.2779C43.2969 18.8371 41.7209 19.7965 39.4864 19.7965C35.5163 19.7965 33.0025 16.6981 33.0025 12.5001C33.0025 8.30174 35.4764 5.20332 39.5263 5.20332C42.4589 5.20332 44.3544 6.62285 45.2321 8.60192L43.3169 9.56132C42.6784 8.06209 41.4418 7.10241 39.4864 7.10241C36.793 7.10241 35.0973 9.18144 35.0973 12.5001C35.0973 15.8584 36.9327 17.8974 39.7857 17.8974C41.9603 17.8974 43.8356 16.5582 43.9753 13.7594H38.7484V11.9402H45.8706Z" fill="#000000"/>
<path fill-rule="evenodd" clip-rule="evenodd" d="M49.4415 13.4796H55.4865C55.3471 12.06 54.3095 10.7608 52.4542 10.7608C50.7182 10.7608 49.7012 11.8404 49.4415 13.4796ZM57.3421 15.0188H49.4016C49.6411 16.8582 50.8382 18.0575 52.4941 18.0575C53.7508 18.0575 54.4691 17.4777 54.948 16.618L56.6437 17.5976C55.6261 19.3168 54.0701 19.7966 52.4738 19.7966C49.5615 19.7966 47.4465 17.6376 47.4465 14.3993C47.4465 11.2806 49.4216 9.0416 52.514 9.0416C55.3268 9.0416 57.402 11.1006 57.402 14.0194C57.402 14.4592 57.3621 14.8388 57.3421 15.0188Z" fill="#000000"/>
<path fill-rule="evenodd" clip-rule="evenodd" d="M58.9777 5.50331H60.8929V19.497H58.9777V5.50331Z" fill="#000000"/>
<path fill-rule="evenodd" clip-rule="evenodd" d="M69.3318 15.5586V14.9988H66.6187C65.0225 14.9988 64.3042 15.6385 64.3042 16.5582C64.3042 17.4777 65.2023 18.0975 66.5189 18.0975C67.8755 18.0975 69.3318 17.4577 69.3318 15.5586ZM72.2845 17.8575V19.497H71.5067C70.3494 19.497 69.7308 19.0771 69.5712 18.1574C69.0524 19.0571 67.9353 19.7366 66.2792 19.7366C64.2845 19.7366 62.3693 18.8572 62.3693 16.5982C62.3693 14.419 64.2645 13.4396 66.3992 13.4396H69.3318V12.8997C69.3318 11.4805 68.3943 10.7807 67.0377 10.7807C65.781 10.7807 65.0225 11.4405 64.6436 12.2602L62.9077 11.2406C63.6061 9.96127 65.0424 9.04157 66.9975 9.04157C69.6311 9.04157 71.247 10.5208 71.247 12.6398V17.0378C71.247 17.6579 71.4665 17.8575 72.0853 17.8575H72.2845Z" fill="#000000"/>
<path fill-rule="evenodd" clip-rule="evenodd" d="M76.2147 10.9807V16.4383C76.2147 17.5177 76.5539 17.8776 77.7708 17.8776H79.1276V19.4967H77.252C75.3169 19.4967 74.2995 18.617 74.2995 16.7579V10.9807H72.2843V9.36122H74.2995V5.50333H76.2147V9.36122H79.1276V10.9807H76.2147Z" fill="#000000"/>
<path fill-rule="evenodd" clip-rule="evenodd" d="M88.0648 14.4191C88.0648 12.2201 86.7881 10.7806 84.8529 10.7806C82.8975 10.7806 81.6012 12.2201 81.6012 14.4191C81.6012 16.658 82.8975 18.0776 84.8529 18.0776C86.7881 18.0776 88.0648 16.658 88.0648 14.4191ZM79.6657 14.4191C79.6657 11.0807 81.8805 9.04169 84.8529 9.04169C87.7855 9.04169 90 11.0807 90 14.4191C90 17.7777 87.7855 19.8164 84.8529 19.8164C81.8805 19.8164 79.6657 17.7777 79.6657 14.4191Z" fill="#000000"/>
</svg>
