<svg width="32" height="32" viewBox="0 0 32 32" fill="none" xmlns="http://www.w3.org/2000/svg">
<mask id="mask0_895_43316" style="mask-type:alpha" maskUnits="userSpaceOnUse" x="4" y="4" width="24" height="24">
<rect x="4" y="4" width="24" height="24" fill="#D9D9D9"/>
</mask>
<g mask="url(#mask0_895_43316)">
<path d="M17 27C16.7167 27 16.4792 26.9042 16.2875 26.7125C16.0958 26.5208 16 26.2833 16 26C16 25.7167 16.0958 25.4792 16.2875 25.2875C16.4792 25.0958 16.7167 25 17 25H23V24H21C20.45 24 19.9792 23.8042 19.5875 23.4125C19.1958 23.0208 19 22.55 19 22V18C19 17.45 19.1958 16.9792 19.5875 16.5875C19.9792 16.1958 20.45 16 21 16H23V15C23 13.0667 22.3167 11.4167 20.95 10.05C19.5833 8.68333 17.9333 8 16 8C14.0667 8 12.4167 8.68333 11.05 10.05C9.68333 11.4167 9 13.0667 9 15V16H11C11.55 16 12.0208 16.1958 12.4125 16.5875C12.8042 16.9792 13 17.45 13 18V22C13 22.55 12.8042 23.0208 12.4125 23.4125C12.0208 23.8042 11.55 24 11 24H9C8.45 24 7.97917 23.8042 7.5875 23.4125C7.19583 23.0208 7 22.55 7 22V15C7 13.7667 7.2375 12.6042 7.7125 11.5125C8.1875 10.4208 8.83333 9.46667 9.65 8.65C10.4667 7.83333 11.4208 7.1875 12.5125 6.7125C13.6042 6.2375 14.7667 6 16 6C17.2333 6 18.3958 6.2375 19.4875 6.7125C20.5792 7.1875 21.5333 7.83333 22.35 8.65C23.1667 9.46667 23.8125 10.4208 24.2875 11.5125C24.7625 12.6042 25 13.7667 25 15V25C25 25.55 24.8042 26.0208 24.4125 26.4125C24.0208 26.8042 23.55 27 23 27H17ZM9 22H11V18H9V22ZM21 22H23V18H21V22Z" fill="#383838"/>
</g>
</svg>
