<svg width="21" height="21" viewBox="0 0 21 21" fill="none" xmlns="http://www.w3.org/2000/svg">
<path d="M10.581 14.667C10.817 14.667 11.022 14.58 11.196 14.406C11.3694 14.2327 11.456 14.028 11.456 13.792V10.521C11.456 10.285 11.3694 10.0837 11.196 9.91699C11.022 9.75033 10.817 9.66699 10.581 9.66699C10.345 9.66699 10.14 9.75366 9.96605 9.92699C9.79271 10.101 9.70605 10.306 9.70605 10.542V13.812C9.70605 14.0487 9.79271 14.2503 9.96605 14.417C10.14 14.5837 10.345 14.667 10.581 14.667ZM10.581 7.97899C10.817 7.97899 11.022 7.89233 11.196 7.71899C11.3694 7.54499 11.456 7.33999 11.456 7.10399C11.456 6.86799 11.3694 6.66333 11.196 6.48999C11.022 6.31599 10.817 6.22899 10.581 6.22899C10.345 6.22899 10.14 6.31599 9.96605 6.48999C9.79271 6.66333 9.70605 6.86799 9.70605 7.10399C9.70605 7.33999 9.79271 7.54499 9.96605 7.71899C10.14 7.89233 10.345 7.97899 10.581 7.97899ZM10.581 18.833C9.42838 18.833 8.34505 18.6143 7.33105 18.177C6.31705 17.7397 5.43505 17.146 4.68505 16.396C3.93505 15.646 3.34138 14.764 2.90405 13.75C2.46671 12.736 2.24805 11.6527 2.24805 10.5C2.24805 9.34733 2.46671 8.26399 2.90405 7.24999C3.34138 6.23599 3.93505 5.35399 4.68505 4.60399C5.43505 3.85399 6.31705 3.26033 7.33105 2.82299C8.34505 2.38566 9.42838 2.16699 10.581 2.16699C11.7337 2.16699 12.817 2.38566 13.831 2.82299C14.845 3.26033 15.727 3.85399 16.477 4.60399C17.227 5.35399 17.8207 6.23599 18.258 7.24999C18.6954 8.26399 18.914 9.34733 18.914 10.5C18.914 11.6527 18.6954 12.736 18.258 13.75C17.8207 14.764 17.227 15.646 16.477 16.396C15.727 17.146 14.845 17.7397 13.831 18.177C12.817 18.6143 11.7337 18.833 10.581 18.833ZM10.581 17.083C12.4004 17.083 13.9524 16.4407 15.237 15.156C16.5217 13.8713 17.164 12.3193 17.164 10.5C17.164 8.68066 16.5217 7.12866 15.237 5.84399C13.9524 4.55933 12.4004 3.91699 10.581 3.91699C8.76171 3.91699 7.20971 4.55933 5.92505 5.84399C4.64038 7.12866 3.99805 8.68066 3.99805 10.5C3.99805 12.3193 4.64038 13.8713 5.92505 15.156C7.20971 16.4407 8.76171 17.083 10.581 17.083Z" fill="#6B6B6B"/>
</svg>
