<svg width="24" height="24" viewBox="0 0 24 24" fill="none" xmlns="http://www.w3.org/2000/svg">
<path d="M4.05 18C3.7668 18 3.5208 17.896 3.312 17.688C3.104 17.4792 3 17.2332 3 16.95C3 16.6668 3.104 16.4208 3.312 16.212C3.5208 16.004 3.7668 15.9 4.05 15.9H14.9748C15.258 15.9 15.504 16.004 15.7128 16.212C15.9208 16.4208 16.0248 16.6668 16.0248 16.95C16.0248 17.2332 15.9208 17.4792 15.7128 17.688C15.504 17.896 15.258 18 14.9748 18H4.05ZM4.05 13.05C3.7668 13.05 3.5208 12.946 3.312 12.738C3.104 12.5292 3 12.2832 3 12C3 11.7168 3.104 11.4708 3.312 11.262C3.5208 11.054 3.7668 10.95 4.05 10.95H12C12.2832 10.95 12.5292 11.054 12.738 11.262C12.946 11.4708 13.05 11.7168 13.05 12C13.05 12.2832 12.946 12.5292 12.738 12.738C12.5292 12.946 12.2832 13.05 12 13.05H4.05ZM4.05 8.1C3.7668 8.1 3.5208 7.996 3.312 7.788C3.104 7.5792 3 7.3332 3 7.05C3 6.7668 3.104 6.5208 3.312 6.312C3.5208 6.104 3.7668 6 4.05 6H14.9748C15.258 6 15.504 6.104 15.7128 6.312C15.9208 6.5208 16.0248 6.7668 16.0248 7.05C16.0248 7.3332 15.9208 7.5792 15.7128 7.788C15.504 7.996 15.258 8.1 14.9748 8.1H4.05ZM17.4504 12L20.2752 14.8248C20.4752 15.0248 20.5752 15.2664 20.5752 15.5496C20.5752 15.8328 20.4752 16.0744 20.2752 16.2744C20.0752 16.4744 19.8292 16.5744 19.5372 16.5744C19.246 16.5744 19.0004 16.4744 18.8004 16.2744L15.2496 12.75C15.0496 12.55 14.9496 12.3 14.9496 12C14.9496 11.7 15.0496 11.45 15.2496 11.25L18.8004 7.7004C19.0004 7.5004 19.246 7.4004 19.5372 7.4004C19.8292 7.4004 20.0752 7.5004 20.2752 7.7004C20.4752 7.9004 20.5752 8.146 20.5752 8.4372C20.5752 8.7292 20.4752 8.9752 20.2752 9.1752L17.4504 12Z" fill="#212121"/>
</svg>
