<svg width="24" height="24" viewBox="0 0 24 24" fill="none" xmlns="http://www.w3.org/2000/svg">
<g>
<path d="M4.05 18C3.7668 18 3.5208 17.896 3.312 17.688C3.104 17.4792 3 17.2332 3 16.95C3 16.6668 3.104 16.4208 3.312 16.212C3.5208 16.004 3.7668 15.9 4.05 15.9H12.9748C13.258 15.9 13.504 16.004 13.7128 16.212C13.9208 16.4208 14.0248 16.6668 14.0248 16.95C14.0248 17.2332 13.9208 17.4792 13.7128 17.688C13.504 17.896 13.258 18 12.9748 18H4.05ZM4.05 13.05C3.7668 13.05 3.5208 12.946 3.312 12.738C3.104 12.5292 3 12.2832 3 12C3 11.7168 3.104 11.4708 3.312 11.262C3.5208 11.054 3.7668 10.95 4.05 10.95H15C15.2832 10.95 15.5292 11.054 15.738 11.262C15.946 11.4708 16.05 11.7168 16.05 12C16.05 12.2832 15.946 12.5292 15.738 12.738C15.5292 12.946 15.2832 13.05 15 13.05H4.05ZM4.05 8.1C3.7668 8.1 3.5208 7.996 3.312 7.788C3.104 7.5792 3 7.3332 3 7.05C3 6.7668 3.104 6.5208 3.312 6.312C3.5208 6.104 3.7668 6 4.05 6H12.9748C13.258 6 13.504 6.104 13.7128 6.312C13.9208 6.5208 14.0248 6.7668 14.0248 7.05C14.0248 7.3332 13.9208 7.5792 13.7128 7.788C13.504 7.996 13.258 8.1 12.9748 8.1H4.05Z" fill="#212121"/>
<path d="M16.208 16.375C16.028 16.1943 15.938 15.986 15.938 15.75C15.938 15.514 16.028 15.3057 16.208 15.125L19.333 12L16.208 8.875C16.028 8.69434 15.938 8.486 15.938 8.25C15.938 8.014 16.028 7.80567 16.208 7.625C16.3887 7.44434 16.597 7.354 16.833 7.354C17.0697 7.354 17.278 7.44434 17.458 7.625L21.208 11.375C21.3053 11.4723 21.375 11.573 21.417 11.677C21.4583 11.781 21.479 11.8887 21.479 12C21.479 12.1113 21.4583 12.219 21.417 12.323C21.375 12.427 21.3053 12.5277 21.208 12.625L17.458 16.375C17.278 16.5557 17.0697 16.646 16.833 16.646C16.597 16.646 16.3887 16.5557 16.208 16.375Z" fill="#212121"/>
</g>
</svg>
