<svg width="32" height="32" viewBox="0 0 32 32" fill="none" xmlns="http://www.w3.org/2000/svg">
  <path d="M16 16C15.1075 16 14.3594 15.6981 13.7556 15.0944C13.1519 14.4906 12.85 13.7425 12.85 12.85C12.85 11.975 13.1519 11.2313 13.7556 10.6187C14.3594 10.0062 15.1075 9.69999 16 9.69999C16.875 9.69999 17.6188 10.0062 18.2313 10.6187C18.8437 11.2313 19.15 11.975 19.15 12.85C19.15 13.7425 18.8437 14.4906 18.2313 15.0944C17.6188 15.6981 16.875 16 16 16ZM15.9939 14.25C16.3888 14.25 16.7219 14.1164 16.9931 13.8493C17.2644 13.5821 17.4 13.251 17.4 12.8562C17.4 12.4612 17.2653 12.1281 16.9958 11.8569C16.7262 11.5856 16.3923 11.45 15.9939 11.45C15.5955 11.45 15.2635 11.5848 14.9981 11.8543C14.7327 12.1238 14.6 12.4578 14.6 12.8562C14.6 13.2546 14.7336 13.5865 15.0007 13.8519C15.2679 14.1173 15.5989 14.25 15.9939 14.25ZM9.7 21.425V20.3031C9.7 19.8669 9.83273 19.4752 10.0981 19.1281C10.3636 18.7811 10.6946 18.4996 11.0913 18.2837C11.8496 17.8696 12.6382 17.5604 13.4571 17.3563C14.2761 17.1521 15.1233 17.05 15.999 17.05C16.8747 17.05 17.7223 17.1521 18.5418 17.3563C19.3614 17.5604 20.1504 17.8696 20.9088 18.2837C21.3054 18.4996 21.6365 18.7811 21.9019 19.1281C22.1673 19.4752 22.3 19.8669 22.3 20.3031V21.425C22.3 21.6729 22.2161 21.8807 22.0484 22.0484C21.8807 22.2161 21.6729 22.3 21.425 22.3H10.575C10.3271 22.3 10.1193 22.2161 9.95155 22.0484C9.78384 21.8807 9.7 21.6729 9.7 21.425ZM16 18.8C15.2061 18.8 14.4316 18.905 13.6765 19.115C12.9213 19.325 12.1967 19.64 11.5025 20.06V20.55H20.4975V20.06C19.8034 19.64 19.0787 19.325 18.3235 19.115C17.5684 18.905 16.7938 18.8 16 18.8ZM7.24998 26.5C6.77748 26.5 6.36769 26.3264 6.02062 25.9794C5.67354 25.6323 5.5 25.2225 5.5 24.75V21.215C5.5 20.9671 5.58415 20.7593 5.75245 20.5916C5.92075 20.4238 6.12928 20.34 6.37806 20.34C6.62684 20.34 6.83436 20.4238 7.00061 20.5916C7.16686 20.7593 7.24998 20.9671 7.24998 21.215V24.75H10.785C11.0329 24.75 11.2407 24.8342 11.4084 25.0024C11.5761 25.1708 11.66 25.3793 11.66 25.6281C11.66 25.8769 11.5761 26.0844 11.4084 26.2506C11.2407 26.4168 11.0329 26.5 10.785 26.5H7.24998ZM5.5 10.785V7.24998C5.5 6.77748 5.67354 6.3677 6.02062 6.02062C6.36769 5.67354 6.77748 5.5 7.24998 5.5H10.785C11.0329 5.5 11.2407 5.58415 11.4084 5.75245C11.5761 5.92075 11.66 6.12929 11.66 6.37806C11.66 6.62684 11.5761 6.83436 11.4084 7.00061C11.2407 7.16686 11.0329 7.24998 10.785 7.24998H7.24998V10.785C7.24998 11.0329 7.16583 11.2407 6.99753 11.4084C6.82924 11.5761 6.6207 11.66 6.37192 11.66C6.12314 11.66 5.91562 11.5761 5.74938 11.4084C5.58313 11.2407 5.5 11.0329 5.5 10.785ZM24.75 26.5H21.215C20.9671 26.5 20.7593 26.4158 20.5915 26.2476C20.4238 26.0792 20.34 25.8707 20.34 25.6219C20.34 25.3731 20.4238 25.1657 20.5915 24.9994C20.7593 24.8331 20.9671 24.75 21.215 24.75H24.75V21.215C24.75 20.9671 24.8342 20.7593 25.0024 20.5916C25.1708 20.4238 25.3793 20.34 25.6281 20.34C25.8769 20.34 26.0844 20.4238 26.2506 20.5916C26.4168 20.7593 26.5 20.9671 26.5 21.215V24.75C26.5 25.2225 26.3264 25.6323 25.9794 25.9794C25.6323 26.3264 25.2225 26.5 24.75 26.5ZM24.75 10.785V7.24998H21.215C20.9671 7.24998 20.7593 7.16583 20.5915 6.99754C20.4238 6.82924 20.34 6.6207 20.34 6.37192C20.34 6.12314 20.4238 5.91563 20.5915 5.74938C20.7593 5.58313 20.9671 5.5 21.215 5.5H24.75C25.2225 5.5 25.6323 5.67354 25.9794 6.02062C26.3264 6.3677 26.5 6.77748 26.5 7.24998V10.785C26.5 11.0329 26.4158 11.2407 26.2476 11.4084C26.0792 11.5761 25.8707 11.66 25.6219 11.66C25.3731 11.66 25.1657 11.5761 24.9994 11.4084C24.8331 11.2407 24.75 11.0329 24.75 10.785Z" fill="#212121"/>
</svg>
