<svg width="24" height="24" viewBox="0 0 24 24" fill="none" xmlns="http://www.w3.org/2000/svg">
<path fill-rule="evenodd" clip-rule="evenodd" d="M20.3261 16.8462C20.6983 16.8462 21 16.5362 21 16.1538V3.69231C21 3.30996 20.6983 3 20.3261 3L11.5657 3C11.3869 3 11.2155 3.07294 11.0892 3.20277C10.9628 3.33261 10.8918 3.5087 10.8918 3.69231V5.09011C10.7552 5.11635 10.6246 5.18178 10.5181 5.28646L10.5172 5.28735L10.5143 5.29012C10.5099 5.29434 10.5018 5.30196 10.4903 5.31249C10.4672 5.33359 10.4306 5.36612 10.3821 5.40629C10.2845 5.48718 10.1425 5.59599 9.96937 5.70425C9.60926 5.9294 9.18272 6.10931 8.77078 6.10931C8.35884 6.10931 7.9323 5.9294 7.57219 5.70425C7.39902 5.59599 7.25704 5.48718 7.15943 5.40629C7.11096 5.36612 7.07435 5.33359 7.05125 5.31249C7.03973 5.30196 7.03165 5.29434 7.02722 5.29012L7.02419 5.28723L7.02341 5.28646C6.88686 5.15221 6.70286 5.07692 6.51114 5.07692L3.73004 5.07692C3.32685 5.07692 3 5.40319 3 5.80567V10.2794C3 10.6818 3.32685 11.0081 3.73004 11.0081H4.73819L4.73819 18.1943C4.73819 18.3876 4.8151 18.573 4.95201 18.7096C5.08892 18.8463 5.27461 18.9231 5.46822 18.9231H7.52237V20.3077C7.52237 20.4913 7.59337 20.6674 7.71975 20.7972C7.84613 20.9271 8.01753 21 8.19626 21H14.2612C14.4399 21 14.6113 20.9271 14.7377 20.7972C14.8641 20.6674 14.9351 20.4913 14.9351 20.3077V18.9231C14.9351 19.6154 14.9354 19.6154 14.9358 19.6154L14.9365 19.6154L14.9381 19.6154L14.9419 19.6154L14.9517 19.6152L14.9681 19.6149L14.9802 19.6145C15.003 19.6137 15.0332 19.6123 15.0699 19.6096C15.1431 19.6042 15.2433 19.5938 15.3617 19.5735C15.5954 19.5335 15.9173 19.4522 16.2473 19.2827C16.5799 19.1118 16.9331 18.8446 17.2015 18.4309C17.4728 18.0128 17.6306 17.4865 17.6306 16.8462H20.3261ZM7.52237 17.4656V13.3846C7.52237 13.201 7.59337 13.0249 7.71975 12.8951C7.84613 12.7652 8.01753 12.6923 8.19626 12.6923H10.8918V6.84381C10.8448 6.87544 10.7956 6.90744 10.7444 6.93947C10.2789 7.23052 9.57557 7.5668 8.77078 7.5668C7.96599 7.5668 7.26271 7.23052 6.79718 6.93947C6.56228 6.79261 6.37047 6.64627 6.23493 6.53441H4.46008V9.55061H5.46822C5.87141 9.55061 6.19826 9.87688 6.19826 10.2794V17.4656H7.52237ZM14.2612 12.6923H12.2395V4.38462L19.6522 4.38462V15.4615H17.6306C17.5304 15.4615 17.4353 15.484 17.3499 15.5243C17.3052 15.4323 17.2556 15.3447 17.2015 15.2614C16.9331 14.8477 16.5799 14.5805 16.2473 14.4096C15.9173 14.2401 15.5954 14.1588 15.3617 14.1188C15.2433 14.0985 15.1431 14.0881 15.0699 14.0827C15.0332 14.08 15.003 14.0786 14.9802 14.0778C14.9688 14.0774 14.9593 14.0772 14.9517 14.0771L14.9419 14.077L14.9381 14.0769L14.9365 14.0769L14.9358 14.0769C14.9354 14.0769 14.9351 14.0769 14.9351 14.7692V13.3846C14.9351 13.0023 14.6334 12.6923 14.2612 12.6923ZM14.9353 18.2306C14.9422 18.2304 14.9554 18.2298 14.9739 18.2285C15.0113 18.2257 15.0691 18.2199 15.1402 18.2077C15.2856 18.1828 15.4691 18.1343 15.6445 18.0442C15.8173 17.9555 15.9695 17.8333 16.0801 17.6629C16.1879 17.4968 16.2828 17.2442 16.2828 16.8462C16.2828 16.4481 16.1879 16.1955 16.0801 16.0295C15.9695 15.8591 15.8173 15.7368 15.6445 15.6481C15.4691 15.558 15.2856 15.5095 15.1402 15.4846C15.0691 15.4724 15.0113 15.4666 14.9739 15.4638C14.9658 15.4632 14.9587 15.4628 14.9528 15.4625C14.9451 15.462 14.9392 15.4618 14.9353 15.4617V18.2306ZM8.87014 19.6154H13.5873V14.0769L8.87014 14.0769V19.6154Z" fill="#212121"/>
</svg>
