<svg xmlns="http://www.w3.org/2000/svg" width="24" height="24" viewBox="0 0 24 24" fill="none" class="search-icon">
    <path
        fill-rule="evenodd"
        clip-rule="evenodd"
        d="M18.9103 20.3233C19.0788 20.5058 19.2998 20.6 19.5881 20.6C19.8756 20.6 20.1073 20.5057 20.294 20.3189C20.4824 20.1306 20.5751 19.9065 20.5751 19.638C20.5751 19.3651 20.4882 19.1502 20.319 18.9811L14.6497 13.2863L14.7326 13.1818C15.1043 12.7131 15.4009 12.1617 15.6214 11.5259C15.8402 10.8927 15.9501 10.2177 15.9501 9.5C15.9501 7.68923 15.3198 6.15655 14.0571 4.89309C12.7936 3.63027 11.2609 3 9.4501 3C7.63932 3 6.11116 3.63025 4.85649 4.89274C3.60158 6.15613 2.9751 7.68891 2.9751 9.5C2.9751 11.3111 3.60159 12.8435 4.85649 14.1063C6.11117 15.3694 7.63934 16 9.4501 16C10.1672 16 10.8417 15.886 11.4744 15.6588C12.1112 15.4302 12.6723 15.129 13.1588 14.756L13.2632 14.676L18.9103 20.3233ZM12.6557 6.30543C13.5346 7.17614 13.9751 8.24407 13.9751 9.5C13.9751 10.7559 13.5346 11.8236 12.6556 12.6936C11.777 13.5639 10.7055 14 9.4501 14C8.19464 14 7.12718 13.5639 6.25703 12.6931C5.38621 11.8229 4.9501 10.7555 4.9501 9.5C4.9501 8.24452 5.38622 7.17674 6.25703 6.30593C7.1272 5.43577 8.19465 5 9.4501 5C10.7055 5 11.777 5.43577 12.6557 6.30543Z"
        fill="#000"
        />
</svg>
