<svg width="24" height="24" viewBox="0 0 24 24" fill="none" xmlns="http://www.w3.org/2000/svg">
<g id="SIze=24">
<path id="icon" fill-rule="evenodd" clip-rule="evenodd" d="M3 3.82282C3 3.37095 3.38838 3.00464 3.86747 3.00464H8.79628C9.02267 3.00464 9.24008 3.08811 9.4021 3.23722L9.40123 3.23642L9.40784 3.24233C9.4149 3.2486 9.42719 3.25939 9.4444 3.27404C9.47888 3.30339 9.53279 3.34799 9.60375 3.40278C9.74646 3.51296 9.9538 3.66101 10.207 3.8085C10.7294 4.11276 11.3676 4.36828 12 4.36828C12.6324 4.36828 13.2706 4.11276 13.793 3.8085C14.0462 3.66101 14.2535 3.51296 14.3962 3.40278C14.4672 3.34799 14.5211 3.30339 14.5556 3.27404C14.5728 3.25939 14.5851 3.2486 14.5922 3.24233L14.5984 3.23675L14.5976 3.2375C14.7596 3.08822 14.9772 3.00464 15.2037 3.00464H20.1325C20.6116 3.00464 21 3.37095 21 3.82282V9.73191C21 10.1838 20.6116 10.5501 20.1325 10.5501H18.5356V20.1865C18.5356 20.6383 18.1472 21.0046 17.6681 21.0046H6.33187C6.10181 21.0046 5.88116 20.9184 5.71848 20.765C5.5558 20.6116 5.4644 20.4035 5.4644 20.1865L5.4644 10.5501H3.86747C3.38838 10.5501 3 10.1838 3 9.73191V3.82282ZM8.46878 4.641H4.73494V8.91373H6.33187C6.56194 8.91373 6.78258 8.99993 6.94527 9.15337C7.10795 9.30681 7.19934 9.51492 7.19934 9.73191V19.3683H16.8007V9.73191C16.8007 9.28004 17.189 8.91373 17.6681 8.91373H19.2651V4.641H15.5312C15.5196 4.65014 15.5076 4.65947 15.4952 4.669C15.3068 4.8145 15.0366 5.00736 14.7046 5.20078C14.0564 5.57833 13.0927 6.00464 12 6.00464C10.9073 6.00464 9.94365 5.57833 9.29544 5.20078C8.96337 5.00736 8.69323 4.8145 8.50478 4.669C8.49245 4.65947 8.48044 4.65014 8.46878 4.641Z" fill="#212121"/>
</g>
</svg>
