<svg width="66" height="61" viewBox="0 0 66 61" fill="none" xmlns="http://www.w3.org/2000/svg">
  <path
    d="M15.1726 10.2086C16.5894 8.79221 18.4745 8.012 20.4737 8.012L45.5143 8C47.5195 8 49.4046 8.78021 50.8274 10.2026L62 21.3776L49.6928 33.6808L49.5127 33.5008V53H16.4933V33.5008L16.3132 33.6808L4 21.3716L15.1726 10.2026V10.2086ZM27.2456 11.0068C28.0321 13.4375 30.3134 15.1959 32.997 15.1959C35.6806 15.1959 37.9679 13.4314 38.7544 11.0008H27.2456V11.0068ZM19.4951 30V49.9992H46.5109V28.6705C46.5109 27.7797 47.5879 27.3335 48.2179 27.9633L49.6928 29.4377L57.7615 21.3716L48.7142 12.3152C47.8617 11.4629 46.733 10.9948 45.5263 10.9948H41.8642C41.0117 15.0999 37.3616 18.1967 33.009 18.1967C28.6565 18.1967 25.0123 15.1059 24.1538 11.0068H20.4857C19.285 11.0068 18.1563 11.4749 17.3038 12.3272L8.25049 21.3776L16.3192 29.4437L17.7902 27.9732C18.4208 27.3428 19.4986 27.7904 19.4972 28.682L19.4951 30Z"
    fill="#383838" stroke="white" />
  <mask id="path-2-inside-1_213_45266" fill="white">
    <path
      d="M21.142 20.003C21.5325 19.6125 21.5325 18.9793 21.142 18.5888L15.7334 13.1802L9.08227 19.8313L14.4909 25.2399C14.8814 25.6304 15.5146 25.6304 15.9051 25.2399L21.142 20.003Z" />
  </mask>
  <path
    d="M21.142 20.003C21.5325 19.6125 21.5325 18.9793 21.142 18.5888L15.7334 13.1802L9.08227 19.8313L14.4909 25.2399C14.8814 25.6304 15.5146 25.6304 15.9051 25.2399L21.142 20.003Z"
    fill="#212121" fill-opacity="0.1" />
  <path fill-rule="evenodd" clip-rule="evenodd"
        d="M16.0559 14.2098L16.763 13.5027L17.1166 13.1491L16.4405 12.4731L16.087 12.8266L15.7334 13.1802L15.3798 13.5337L15.0263 13.8873L15.7024 14.5634L16.0559 14.2098ZM17.0545 15.9155L17.4081 15.562L18.1152 14.8549L18.4687 14.5013L19.8209 15.8535L19.4673 16.207L18.7602 16.9141L18.4067 17.2677L17.0545 15.9155ZM19.7588 18.6198L20.1124 18.2663L20.8195 17.5592L21.173 17.2056L21.8491 17.8817C22.142 18.1746 22.3251 18.5357 22.3983 18.9139C22.4818 19.3454 22.4224 19.7991 22.22 20.199C22.1415 20.3541 22.0415 20.5011 21.9201 20.6355C21.8972 20.6608 21.8735 20.6857 21.8491 20.7101L21.1945 21.3647L20.841 21.0112L20.1338 20.3041L19.7803 19.9505L20.4349 19.2959L20.4349 19.2959L19.7588 18.6198ZM18.4711 21.2597L18.8246 21.6133L19.5317 22.3204L19.8853 22.674L18.5761 23.9832L18.2225 23.6296L17.5154 22.9225L17.1618 22.569L18.4711 21.2597ZM15.8526 23.8782L16.2062 24.2317L16.9133 24.9389L17.2668 25.2924L16.6122 25.947C15.8342 26.725 14.5747 26.7281 13.793 25.9561C13.7899 25.9531 13.7868 25.9501 13.7838 25.947L13.1077 25.2709L13.4613 24.9174L14.1684 24.2103L14.5219 23.8567L15.198 24.5328L15.8526 23.8782ZM13.1698 22.5046L12.8162 22.8581L12.1091 23.5652L11.7556 23.9188L10.4034 22.5666L10.7569 22.2131L11.4641 21.506L11.8176 21.1524L13.1698 22.5046ZM10.4655 19.8003L10.1119 20.1538L9.4048 20.8609L9.05124 21.2145L8.37517 20.5384L8.72872 20.1849L9.08227 19.8313L9.43583 19.4777L9.78938 19.1242L10.4655 19.8003Z"
        fill="#6B6B6B" mask="url(#path-2-inside-1_213_45266)" />
</svg>
