<svg width="66" height="61" viewBox="0 0 66 61" fill="none" xmlns="http://www.w3.org/2000/svg">
  <path
    d="M50.8274 10.2086C49.4106 8.79221 47.5255 8.012 45.5263 8.012L20.4857 8C18.4805 8 16.5954 8.78021 15.1726 10.2026L4 21.3776L16.3072 33.6808L16.4873 33.5008V53H49.5067V33.5008L49.6868 33.6808L62 21.3716L50.8274 10.2026V10.2086ZM38.7544 11.0068C37.9679 13.4375 35.6866 15.1959 33.003 15.1959C30.3194 15.1959 28.0321 13.4314 27.2456 11.0008H38.7544V11.0068ZM46.5049 30V49.9992H19.4891V28.6705C19.4891 27.7797 18.4121 27.3335 17.7821 27.9633L16.3072 29.4377L8.23848 21.3716L17.2858 12.3152C18.1383 11.4629 19.267 10.9948 20.4737 10.9948H24.1358C24.9883 15.0999 28.6384 18.1967 32.991 18.1967C37.3435 18.1967 40.9877 15.1059 41.8462 11.0068H45.5143C46.715 11.0068 47.8437 11.4749 48.6962 12.3272L57.7495 21.3776L49.6808 29.4437L48.2098 27.9732C47.5792 27.3428 46.5014 27.7904 46.5028 28.682L46.5049 30Z"
    fill="#383838" stroke="white" />
  <rect x="24" y="20.5" width="18" height="20" rx="0.5" fill="#212121" fill-opacity="0.1" />
  <rect x="24" y="20.5" width="18" height="20" rx="0.5" stroke="#6B6B6B" stroke-dasharray="2 2" />
</svg>
