<svg width="66" height="61" viewBox="0 0 66 61" fill="none" xmlns="http://www.w3.org/2000/svg">
  <path
    d="M50.8274 10.2086C49.4106 8.79221 47.5255 8.012 45.5263 8.012L20.4857 8C18.4805 8 16.5954 8.78021 15.1726 10.2026L4 21.3776L16.3072 33.6808L16.4873 33.5008V53H49.5067V33.5008L49.6868 33.6808L62 21.3716L50.8274 10.2026V10.2086ZM38.7544 11.0068C37.9679 13.4375 35.6866 15.1959 33.003 15.1959C30.3194 15.1959 28.0321 13.4314 27.2456 11.0008H38.7544V11.0068ZM46.5049 30V49.9992H19.4891V28.6705C19.4891 27.7797 18.4121 27.3335 17.7821 27.9633L16.3072 29.4377L8.23848 21.3716L17.2858 12.3152C18.1383 11.4629 19.267 10.9948 20.4737 10.9948H24.1358C24.9883 15.0999 28.6384 18.1967 32.991 18.1967C37.3435 18.1967 40.9877 15.1059 41.8462 11.0068H45.5143C46.715 11.0068 47.8437 11.4749 48.6962 12.3272L57.7495 21.3776L49.6808 29.4437L48.2098 27.9732C47.5792 27.3428 46.5014 27.7904 46.5028 28.682L46.5049 30Z"
    fill="#383838" stroke="white" />
  <mask id="path-2-inside-1_1_16579" fill="white">
    <path
      d="M44.858 20.003C44.4675 19.6125 44.4675 18.9793 44.858 18.5888L50.2666 13.1802L56.9177 19.8313L51.5091 25.2399C51.1186 25.6304 50.4854 25.6304 50.0949 25.2399L44.858 20.003Z" />
  </mask>
  <path
    d="M44.858 20.003C44.4675 19.6125 44.4675 18.9793 44.858 18.5888L50.2666 13.1802L56.9177 19.8313L51.5091 25.2399C51.1186 25.6304 50.4854 25.6304 50.0949 25.2399L44.858 20.003Z"
    fill="#212121" fill-opacity="0.1" />
  <path fill-rule="evenodd" clip-rule="evenodd"
        d="M49.9441 14.2098L49.237 13.5027L48.8834 13.1491L49.5595 12.4731L49.913 12.8266L50.2666 13.1802L50.6202 13.5337L50.9737 13.8873L50.2976 14.5634L49.9441 14.2098ZM48.9455 15.9155L48.5919 15.562L47.8848 14.8549L47.5313 14.5013L46.1791 15.8535L46.5327 16.207L47.2398 16.9141L47.5933 17.2677L48.9455 15.9155ZM46.2412 18.6198L45.8876 18.2663L45.1805 17.5592L44.827 17.2056L44.1509 17.8817C43.858 18.1746 43.6749 18.5357 43.6017 18.9139C43.5182 19.3454 43.5776 19.7991 43.78 20.199C43.8585 20.3541 43.9585 20.5011 44.0799 20.6355C44.1028 20.6608 44.1265 20.6857 44.1509 20.7101L44.8055 21.3647L45.159 21.0112L45.8662 20.3041L46.2197 19.9505L45.5651 19.2959L45.5651 19.2959L46.2412 18.6198ZM47.5289 21.2597L47.1754 21.6133L46.4683 22.3204L46.1147 22.674L47.4239 23.9832L47.7775 23.6296L48.4846 22.9225L48.8382 22.569L47.5289 21.2597ZM50.1474 23.8782L49.7938 24.2317L49.0867 24.9389L48.7332 25.2924L49.3878 25.947C50.1658 26.725 51.4253 26.7281 52.207 25.9561C52.2101 25.9531 52.2132 25.9501 52.2162 25.947L52.8923 25.2709L52.5387 24.9174L51.8316 24.2103L51.4781 23.8567L50.802 24.5328L50.1474 23.8782ZM52.8302 22.5046L53.1838 22.8581L53.8909 23.5652L54.2444 23.9188L55.5966 22.5666L55.2431 22.2131L54.5359 21.506L54.1824 21.1524L52.8302 22.5046ZM55.5345 19.8003L55.8881 20.1538L56.5952 20.8609L56.9488 21.2145L57.6248 20.5384L57.2713 20.1849L56.9177 19.8313L56.5642 19.4777L56.2106 19.1242L55.5345 19.8003Z"
        fill="#6B6B6B" mask="url(#path-2-inside-1_1_16579)" />
</svg>
