<svg width="66" height="61" viewBox="0 0 66 61" fill="none" xmlns="http://www.w3.org/2000/svg">
  <path
    d="M50.8274 10.2086C49.4106 8.79221 47.5255 8.012 45.5263 8.012L20.4857 8C18.4805 8 16.5954 8.78021 15.1726 10.2026L4 21.3776L16.3072 33.6808L16.4873 33.5008V53H49.5067V33.5008L49.6868 33.6808L62 21.3716L50.8274 10.2026V10.2086ZM38.7544 11.0068C37.9679 13.4375 35.6866 15.1959 33.003 15.1959C30.3194 15.1959 28.0321 13.4314 27.2456 11.0008H38.7544V11.0068ZM46.5049 30V49.9992H19.4891V28.6705C19.4891 27.7797 18.4121 27.3335 17.7821 27.9633L16.3072 29.4377L8.23848 21.3716L17.2858 12.3152C18.1383 11.4629 19.267 10.9948 20.4737 10.9948H24.1358C24.9883 15.0999 28.6384 18.1967 32.991 18.1967C37.3435 18.1967 40.9877 15.1059 41.8462 11.0068H45.5143C46.715 11.0068 47.8437 11.4749 48.6962 12.3272L57.7495 21.3776L49.6808 29.4437L48.2098 27.9732C47.5792 27.3428 46.5014 27.7904 46.5028 28.682L46.5049 30Z"
    fill="#383838" />
  <path fill-rule="evenodd" clip-rule="evenodd"
        d="M45.5263 8.012C47.5255 8.012 49.4106 8.79221 50.8274 10.2086V10.2026L62 21.3716L49.6868 33.6808L49.5067 33.5008V53H16.4873V33.5008L16.3072 33.6808L4 21.3776L15.1726 10.2026C16.5954 8.78021 18.4805 8 20.4857 8L45.5263 8.012ZM46.5049 49.9992V30L46.5028 28.682C46.5014 27.7904 47.5792 27.3428 48.2098 27.9732L49.6808 29.4437L57.7495 21.3776L48.6962 12.3272C47.8437 11.4749 46.715 11.0068 45.5143 11.0068H44V11H24.1369C24.1365 10.9983 24.1362 10.9965 24.1358 10.9948H20.4737C19.267 10.9948 18.1383 11.4629 17.2858 12.3152L8.23848 21.3716L16.3072 29.4377L17.7821 27.9633C18.4121 27.3335 19.4891 27.7797 19.4891 28.6705V49.9992H46.5049Z"
        fill="#383838" />
  <path
    d="M50.8274 10.2086C49.4106 8.79221 47.5255 8.012 45.5263 8.012L20.4857 8C18.4805 8 16.5954 8.78021 15.1726 10.2026L4 21.3776L16.3072 33.6808L16.4873 33.5008V53H49.5067V33.5008L49.6868 33.6808L62 21.3716L50.8274 10.2026V10.2086ZM38.7544 11.0068C37.9679 13.4375 35.6866 15.1959 33.003 15.1959C30.3194 15.1959 28.0321 13.4314 27.2456 11.0008H38.7544V11.0068ZM46.5049 30V49.9992H19.4891V28.6705C19.4891 27.7797 18.4121 27.3335 17.7821 27.9633L16.3072 29.4377L8.23848 21.3716L17.2858 12.3152C18.1383 11.4629 19.267 10.9948 20.4737 10.9948H24.1358C24.9883 15.0999 28.6384 18.1967 32.991 18.1967C37.3435 18.1967 40.9877 15.1059 41.8462 11.0068H45.5143C46.715 11.0068 47.8437 11.4749 48.6962 12.3272L57.7495 21.3776L49.6808 29.4437L48.2098 27.9732C47.5792 27.3428 46.5014 27.7904 46.5028 28.682L46.5049 30Z"
    fill="#383838" />
  <path
    d="M50.8274 10.2086L50.474 10.5622L51.3274 11.4154V10.2086H50.8274ZM45.5263 8.012L45.5261 8.512H45.5263V8.012ZM20.4857 8L20.4859 7.5H20.4857V8ZM15.1726 10.2026L14.8191 9.84898L14.819 9.84907L15.1726 10.2026ZM4 21.3776L3.64641 21.0241L3.29288 21.3777L3.6465 21.7312L4 21.3776ZM16.3072 33.6808L15.9537 34.0345L16.3072 34.3878L16.6607 34.0345L16.3072 33.6808ZM16.4873 33.5008H16.9873V32.294L16.1338 33.1472L16.4873 33.5008ZM16.4873 53H15.9873V53.5H16.4873V53ZM49.5067 53V53.5H50.0067V53H49.5067ZM49.5067 33.5008L49.8602 33.1472L49.0067 32.2939V33.5008H49.5067ZM49.6868 33.6808L49.3333 34.0345L49.6868 34.3878L50.0403 34.0345L49.6868 33.6808ZM62 21.3716L62.3535 21.7252L62.7072 21.3716L62.3535 21.018L62 21.3716ZM50.8274 10.2026L51.1809 9.84898L50.3274 8.99575V10.2026H50.8274ZM38.7544 11.0068L39.2301 11.1607L39.2544 11.0857V11.0068H38.7544ZM27.2456 11.0008V10.5008H26.5583L26.7699 11.1547L27.2456 11.0008ZM38.7544 11.0008H39.2544V10.5008H38.7544V11.0008ZM46.5049 30H47.0049V29.9992L46.5049 30ZM46.5049 49.9992V50.4992H47.0049V49.9992H46.5049ZM19.4891 49.9992H18.9891V50.4992H19.4891V49.9992ZM16.3072 29.4377L15.9537 29.7913L16.3072 30.1447L16.6607 29.7913L16.3072 29.4377ZM8.23848 21.3716L7.88475 21.0182L7.5315 21.3718L7.88499 21.7252L8.23848 21.3716ZM17.2858 12.3152L16.9323 11.9615L16.9321 11.9618L17.2858 12.3152ZM24.1358 10.9948L24.6254 10.8931L24.5426 10.4948H24.1358V10.9948ZM41.8462 11.0068V10.5068H41.4401L41.3568 10.9043L41.8462 11.0068ZM48.6962 12.3272L48.3427 12.6808L48.6962 12.3272ZM57.7495 21.3776L58.103 21.7312L58.4567 21.3776L58.103 21.024L57.7495 21.3776ZM49.6808 29.4437L49.3273 29.7973L49.6808 30.1507L50.0343 29.7973L49.6808 29.4437ZM48.2098 27.9732L48.5633 27.6196L48.2098 27.9732ZM46.5028 28.682L47.0028 28.6812L46.5028 28.682ZM17.7821 27.9633L18.1356 28.3169L17.7821 27.9633ZM51.1809 9.85498C49.6704 8.34492 47.6582 7.512 45.5263 7.512V8.512C47.3929 8.512 49.1508 9.2395 50.474 10.5622L51.1809 9.85498ZM45.5266 7.512L20.4859 7.5L20.4854 8.5L45.5261 8.512L45.5266 7.512ZM20.4857 7.5C18.3477 7.5 16.3355 8.33298 14.8191 9.84898L15.526 10.5562C16.8552 9.22744 18.6132 8.5 20.4857 8.5V7.5ZM14.819 9.84907L3.64641 21.0241L4.35359 21.7311L15.5261 10.5561L14.819 9.84907ZM3.6465 21.7312L15.9537 34.0345L16.6607 33.3272L4.3535 21.024L3.6465 21.7312ZM16.6607 34.0345L16.8408 33.8544L16.1338 33.1472L15.9537 33.3272L16.6607 34.0345ZM15.9873 33.5008V53H16.9873V33.5008H15.9873ZM16.4873 53.5H49.5067V52.5H16.4873V53.5ZM50.0067 53V33.5008H49.0067V53H50.0067ZM49.1532 33.8544L49.3333 34.0345L50.0403 33.3272L49.8602 33.1472L49.1532 33.8544ZM50.0403 34.0345L62.3535 21.7252L61.6465 21.018L49.3333 33.3272L50.0403 34.0345ZM62.3535 21.018L51.1809 9.84898L50.474 10.5562L61.6465 21.7252L62.3535 21.018ZM50.3274 10.2026V10.2086H51.3274V10.2026H50.3274ZM38.2787 10.8529C37.5568 13.0839 35.4628 14.6959 33.003 14.6959V15.6959C35.9103 15.6959 38.379 13.791 39.2301 11.1607L38.2787 10.8529ZM33.003 14.6959C30.5434 14.6959 28.4433 13.078 27.7213 10.8469L26.7699 11.1547C27.6209 13.7848 30.0955 15.6959 33.003 15.6959V14.6959ZM27.2456 11.5008H38.7544V10.5008H27.2456V11.5008ZM38.2544 11.0008V11.0068H39.2544V11.0008H38.2544ZM46.0049 30V49.9992H47.0049V30H46.0049ZM46.5049 49.4992H19.4891V50.4992H46.5049V49.4992ZM19.9891 49.9992V28.6705H18.9891V49.9992H19.9891ZM17.4286 27.6097L15.9537 29.0841L16.6607 29.7913L18.1356 28.3169L17.4286 27.6097ZM16.6607 29.0841L8.59198 21.018L7.88499 21.7252L15.9537 29.7913L16.6607 29.0841ZM8.59222 21.7249L17.6395 12.6685L16.9321 11.9618L7.88475 21.0182L8.59222 21.7249ZM17.6393 12.6688C18.3981 11.9102 19.3997 11.4948 20.4737 11.4948V10.4948C19.1342 10.4948 17.8785 11.0157 16.9323 11.9615L17.6393 12.6688ZM20.4737 11.4948H24.1358V10.4948H20.4737V11.4948ZM23.6462 11.0965C24.5459 15.4286 28.3964 18.6967 32.991 18.6967V17.6967C28.8805 17.6967 25.4307 14.7712 24.6254 10.8931L23.6462 11.0965ZM32.991 18.6967C37.5854 18.6967 41.4296 15.4348 42.3356 11.1093L41.3568 10.9043C40.5457 14.777 37.1017 17.6967 32.991 17.6967V18.6967ZM41.8462 11.5068H45.5143V10.5068H41.8462V11.5068ZM45.5143 11.5068C46.582 11.5068 47.5836 11.9219 48.3427 12.6808L49.0497 11.9735C48.1038 11.0279 46.8481 10.5068 45.5143 10.5068V11.5068ZM48.3427 12.6808L57.396 21.7312L58.103 21.024L49.0497 11.9735L48.3427 12.6808ZM57.396 21.024L49.3273 29.0901L50.0343 29.7973L58.103 21.7312L57.396 21.024ZM50.0343 29.0901L48.5633 27.6196L47.8563 28.3268L49.3273 29.7973L50.0343 29.0901ZM46.0028 28.6828L46.0049 30.0008L47.0049 29.9992L47.0028 28.6812L46.0028 28.6828ZM48.5633 27.6196C47.6175 26.6741 46.0007 27.3454 46.0028 28.6828L47.0028 28.6812C47.0021 28.2354 47.541 28.0116 47.8563 28.3268L48.5633 27.6196ZM19.9891 28.6705C19.9891 27.3343 18.3736 26.665 17.4286 27.6097L18.1356 28.3169C18.4506 28.002 18.9891 28.2251 18.9891 28.6705H19.9891Z"
    fill="white" />
  <rect x="23" y="5.5" width="20" height="13" rx="0.5" fill="#212121" fill-opacity="0.1" />
  <rect x="23" y="5.5" width="20" height="13" rx="0.5" stroke="#6B6B6B" stroke-dasharray="2 2" />
</svg>
